<?xml version="1.0" encoding="UTF-8"?><svg id="a" xmlns="http://www.w3.org/2000/svg" viewBox="0 0 1231.3067 290.0666"><path d="M34.648,272.2982c-5.3299,0-10.1472-1.1884-14.4361-3.5533-4.2968-2.3669-7.4827-6.81-9.5511-13.3273-.2986-.8878-.5205-1.7757-.6659-2.6645-.1532-.8888-.222-1.923-.222-3.1094,0-5.9202,1.3327-13.3263,3.9972-22.2105,2.6655-8.8842,5.9212-17.4699,9.773-25.7638-1.7766,2.3738-3.8519,5.2612-6.2188,8.6623-2.3738,3.4079-5.7748,7.7734-10.2169,13.1044-1.1874,1.1864-2.5191,1.7766-3.9982,1.7766-2.0752,0-3.1094-1.1805-3.1094-3.5543,0-1.7766.5903-3.2547,1.7766-4.4421,7.6978-9.772,14.5824-18.503,20.6558-26.2077,6.0665-7.6968,10.5843-14.2141,13.5483-19.5451,0-.2917-.0766-.5136-.222-.6659-.1532-.1463-.222-.3683-.222-.6669,0-.8878.4439-2.2206,1.3327-3.9972,2.3669-7.1076,4.8094-13.1044,7.3295-17.9904,2.5122-4.887,5.2533-7.6212,8.2174-8.2183.5903,0,1.1795-.0687,1.7766-.222.5903-.1454,1.1805-.222,1.7766-.222,3.2557,0,6.2188.7425,8.8842,2.2206,2.6655,1.4859,3.9982,3.7065,3.9982,6.6636,0,2.6655-.9644,5.9271-2.8874,9.772-1.9299,3.8528-4.3724,8.5925-7.3295,14.2151-6.5173,13.6239-12.3678,25.9858-17.5465,37.0905-5.1846,11.1058-8.072,20.2119-8.6613,27.3185-.2986,1.1874-.4449,2.2981-.4449,3.3323v3.3313c0,11.8472,3.846,17.7674,11.5497,17.7674,4.7338,0,10.8072-2.5889,18.2123-7.7744,7.3993-5.1767,14.9507-11.5477,22.6544-19.0992,7.6978-7.5515,14.7288-14.8044,21.0998-21.7666,6.3651-6.9544,10.7306-12.2155,13.1044-15.7688.8878-.8888,1.7766-1.3327,2.6655-1.3327,1.1795,0,2.144.4439,2.8874,1.3327.7356.8878.8112,2.0752.222,3.5533-2.6655,5.0392-7.1842,11.3277-13.5483,18.8792-6.372,7.5515-13.4795,15.103-21.3217,22.6544-7.85,7.5515-15.4781,13.9912-22.8774,19.3221-3.8519,2.964-8.6613,5.5529-14.4361,7.7744-5.7748,2.2196-11.6263,3.3313-17.5465,3.3313ZM83.0663,113.2732c-3.8519,0-7.85-.3683-11.9936-1.1108-4.1504-.7356-6.2188-3.4777-6.2188-8.2183,0-.8878,1.9996-2.9562,5.9968-6.2188,3.9982-3.2547,8.1417-6.5861,12.4375-9.994,4.2899-3.4011,6.8856-5.4006,7.7744-5.9968,5.0314-4.1435,8.1407-6.2188,9.3281-6.2188,1.4781,0,1.4781,1.9289,0,5.7739-1.4859,3.8528-2.2215,7.2608-2.2215,10.2169,0,1.485-.8878,3.9982-2.6645,7.5515-1.7776,3.5533-3.8528,6.8159-6.2197,9.773-2.3738,2.963-4.4421,4.4421-6.2188,4.4421Z"/><path d="M141.7015,272.2982c-12.4385,0-21.0998-3.1094-25.9868-9.3281-4.886-6.2188-7.3285-13.9166-7.3285-23.0993,0-8.5856,1.9986-19.3919,5.9968-32.4265,3.9972-13.0278,9.2515-27.0965,15.7688-42.1995,6.5104-15.103,13.5483-30.1293,21.0998-45.0869,7.5515-14.9498,15.103-28.721,22.6544-41.3107,7.5515-12.5838,14.1385-22.7242,19.767-30.4279,5.6216-7.3993,11.695-14.8054,18.2123-22.2105,6.5104-7.3993,13.7702-13.618,21.7666-18.6572,7.9954-5.0314,17.025-7.5515,27.0965-7.5515,6.808,0,12.6595,1.8533,17.5455,5.5529,4.886,3.7065,7.3295,9.2594,7.3295,16.6576,0,2.964-.5205,6.372-1.5547,10.2169-1.041,3.8519-2.7421,7.85-5.108,11.9936-18.067,31.3923-39.6107,60.4118-64.632,87.0645-25.0282,26.6516-51.4589,51.3813-79.291,74.1821-1.1864,4.4421-2.2972,8.4393-3.3313,11.9936-1.041,3.5533-1.8533,6.371-2.4435,8.4393-.2986,1.4859-.4439,3.0406-.4439,4.6641v4.665c0,7.1066,1.1795,13.3253,3.5533,18.6563,2.3669,5.329,6.3651,7.9944,11.9936,7.9944,5.3309,0,11.918-2.5889,19.767-7.7725,7.8432-5.1777,15.7698-11.5497,23.7652-19.1011,7.9964-7.5515,15.2493-14.881,21.7666-21.9876,6.5104-7.1076,11.1048-12.5838,13.7702-16.4357.8878-.8888,1.7766-1.3327,2.6655-1.3327,1.1795,0,2.144.5971,2.8864,1.7766.7366,1.1874.6669,2.6655-.222,4.4421-2.963,5.0392-7.7037,11.258-14.2141,18.6563-6.5173,7.4061-13.7702,14.881-21.7666,22.4325-7.9954,7.5515-15.6991,14.1444-23.0984,19.766-9.1828,6.5114-18.5109,9.774-27.9844,9.774ZM141.2566,187.8992c11.2511-7.6968,22.9461-17.6918,35.0929-29.984,12.1389-12.2853,24.0559-25.6872,35.7578-40.2009,11.695-14.5058,22.3559-28.8732,31.9826-43.0873,9.6198-14.2151,17.3942-27.0965,23.3213-38.6462,1.7766-3.2547,3.0328-6.1421,3.7752-8.6613.7366-2.5132,1.1108-4.8104,1.1108-6.8856,0-5.6216-2.3738-8.4403-7.1076-8.4403-4.1504,0-9.3281,2.2215-15.5469,6.6636-15.9908,12.4375-30.803,28.3595-44.4201,47.7514-13.6249,19.3997-25.7638,39.757-36.4247,61.0787-10.6609,21.3217-19.8436,41.4639-27.5414,60.4118Z"/><path d="M245.6426,272.2982c-12.4385,0-21.0998-3.1094-25.9868-9.3281-4.886-6.2188-7.3285-13.9166-7.3285-23.0993,0-8.5856,1.9986-19.3919,5.9968-32.4265,3.9972-13.0278,9.2515-27.0965,15.7688-42.1995,6.5104-15.103,13.5483-30.1293,21.0998-45.0869,7.5515-14.9498,15.103-28.721,22.6544-41.3107,7.5515-12.5838,14.1385-22.7242,19.767-30.4279,5.6216-7.3993,11.695-14.8054,18.2123-22.2105,6.5104-7.3993,13.7702-13.618,21.7666-18.6572,7.9954-5.0314,17.025-7.5515,27.0965-7.5515,6.808,0,12.6595,1.8533,17.5455,5.5529,4.886,3.7065,7.3295,9.2594,7.3295,16.6576,0,2.964-.5205,6.372-1.5547,10.2169-1.041,3.8519-2.7421,7.85-5.108,11.9936-18.067,31.3923-39.6107,60.4118-64.632,87.0645-25.0282,26.6516-51.4589,51.3813-79.291,74.1821-1.1864,4.4421-2.2972,8.4393-3.3313,11.9936-1.041,3.5533-1.8533,6.371-2.4435,8.4393-.2986,1.4859-.4439,3.0406-.4439,4.6641v4.665c0,7.1066,1.1795,13.3253,3.5533,18.6563,2.3669,5.329,6.3651,7.9944,11.9936,7.9944,5.3309,0,11.918-2.5889,19.767-7.7725,7.8432-5.1777,15.7698-11.5497,23.7652-19.1011,7.9964-7.5515,15.2493-14.881,21.7666-21.9876,6.5104-7.1076,11.1048-12.5838,13.7702-16.4357.8878-.8888,1.7766-1.3327,2.6655-1.3327,1.1795,0,2.144.5971,2.8864,1.7766.7366,1.1874.6669,2.6655-.222,4.4421-2.963,5.0392-7.7037,11.258-14.2141,18.6563-6.5173,7.4061-13.7702,14.881-21.7666,22.4325-7.9954,7.5515-15.6991,14.1444-23.0984,19.766-9.1828,6.5114-18.5109,9.774-27.9844,9.774ZM245.1977,187.8992c11.2511-7.6968,22.9461-17.6918,35.0929-29.984,12.1389-12.2853,24.0559-25.6872,35.7578-40.2009,11.695-14.5058,22.3559-28.8732,31.9826-43.0873,9.6198-14.2151,17.3942-27.0965,23.3213-38.6462,1.7766-3.2547,3.0328-6.1421,3.7752-8.6613.7366-2.5132,1.1108-4.8104,1.1108-6.8856,0-5.6216-2.3738-8.4403-7.1076-8.4403-4.1504,0-9.3281,2.2215-15.5469,6.6636-15.9908,12.4375-30.803,28.3595-44.4201,47.7514-13.6249,19.3997-25.7638,39.757-36.4247,61.0787s-19.8436,41.4639-27.5414,60.4118Z"/><path d="M439.7566,272.2982c-5.3299,0-10.0706-1.1884-14.2141-3.5533-4.1504-2.3669-7.2598-6.81-9.3281-13.3273-.2986-1.4791-.6669-3.1781-1.1108-5.108-.4439-1.922-.6659-3.9216-.6659-5.9968,0-7.1066.9576-15.103,2.8874-23.9872,1.922-8.8832,4.0669-16.2825,6.4407-22.2095-1.1874.8878-3.2626,3.8519-6.2188,8.8842-2.964,5.0382-6.6636,10.8828-11.1058,17.5455-4.4421,6.6636-9.4047,13.3263-14.881,19.99-5.4831,6.6627-11.4033,12.1448-17.7674,16.4347-6.372,4.2958-13.1044,6.4407-20.2119,6.4407-4.7407,0-10.4389-1.3317-17.1016-3.9972-6.6627-2.6655-11.4799-6.3641-14.4371-11.1048-2.963-4.7338-4.4421-10.6609-4.4421-17.7684,0-8.5856,1.923-17.9904,5.7748-28.2073,3.845-10.2169,8.732-19.767,14.659-28.6512,2.0683-2.9562,4.4421-6.5104,7.1076-10.6609,2.6645-4.1435,5.3299-7.7734,7.9954-10.8828s4.5875-4.8104,5.7748-5.108c3.5533-1.1805,7.6968-1.7776,12.4375-1.7776,5.0324,0,8.731.5971,11.1048,1.7776,2.0683.8878,3.1094,1.9289,3.1094,3.1094,0,1.485-1.1864,3.4079-3.5533,5.7739-3.2616,2.964-7.7037,7.4061-13.3263,13.3263-5.6285,5.928-11.1814,13.0346-16.6576,21.3217-5.4831,8.2949-9.994,17.4767-13.5483,27.5414-2.963,7.9954-4.4421,14.9566-4.4421,20.8778,0,10.3682,4.1435,15.5459,12.4385,15.5459,7.1066,0,14.6581-2.9562,22.6544-8.8832,7.9954-5.9202,15.7688-13.1731,23.3203-21.7656,7.5515-8.5866,14.3605-17.1025,20.4339-25.5419,6.0655-8.4403,10.7296-15.1727,13.9922-20.2119,2.9562-4.1435,6.2885-9.4735,9.994-15.9908,3.6996-6.5104,7.3295-12.8824,10.8838-19.1011,3.5533-6.2188,6.3641-10.8072,8.4393-13.7702,2.0683,0,5.2543.3742,9.5511,1.1108,4.2889.7425,7.9954,1.9986,11.1048,3.7752s3.9216,3.9982,2.4435,6.6627c-1.7776,2.964-4.5187,7.5515-8.2183,13.7712-3.7065,6.2188-7.4051,12.5141-11.1048,18.8782-3.7065,6.372-6.5939,11.4799-8.6623,15.3249-7.1076,13.6249-11.7019,28.2839-13.7702,43.9762-.2986,1.1874-.4439,2.2981-.4439,3.3323v3.3313c0,11.8472,3.9972,17.7674,11.9936,17.7674,4.4421,0,10.3623-2.6655,17.7674-7.9954,7.3993-5.3299,15.0273-11.695,22.8774-19.1002,7.8422-7.3993,14.9498-14.5824,21.3217-21.5447,6.3641-6.9544,10.7296-12.2155,13.1034-15.7688.5903-.8888,1.4791-1.3327,2.6655-1.3327,1.1805,0,2.1449.4439,2.8874,1.3327.7356.8878.6659,2.0752-.222,3.5533-2.6655,5.0392-7.1842,11.3277-13.5483,18.8792-6.372,7.5515-13.4029,15.103-21.0998,22.6544-7.7047,7.5515-15.2562,13.9912-22.6544,19.3221-3.8519,2.964-8.7389,5.5529-14.659,7.7744-5.9271,2.2196-11.8472,3.3313-17.7684,3.3313Z"/><path d="M523.2599,290.0666c-11.8482,0-17.7684-3.2626-17.7684-9.774,0-4.7397,2.5132-9.6267,7.5515-14.6571,3.845-3.846,8.1417-6.9553,12.8824-9.3301,4.7338-2.3669,7.6968-3.5523,8.8842-3.5523,1.4781,0,2.2903.5961,2.4425,1.7766.1463,1.1864-.5205,2.0742-1.9986,2.6655-2.964,1.7757-6.2954,4.2192-9.995,7.3285-3.7055,3.1094-5.5519,6.4407-5.5519,9.994,0,4.7338,2.8108,7.1085,8.4393,7.1085,6.809,0,13.9166-1.9996,21.3217-5.9968,7.3993-3.9972,14.2839-9.1062,20.6568-15.3249,6.3641-6.2188,11.5497-12.5072,15.5449-18.8792,3.9992-6.3641,5.9988-11.917,5.9988-16.6576,0-3.845-1.3317-7.3983-3.9992-10.6609-2.6635-3.2547-8.1476-7.1066-16.4367-11.5487-5.6275-3.2557-11.0341-6.6636-16.2118-10.2169-5.1846-3.5533-9.1062-7.8432-11.7716-12.8824-2.3738,4.1514-5.4065,9.1062-9.1062,14.881-3.7065,5.7748-8.072,11.7716-13.1034,17.9904-1.7776,1.7766-3.5543,2.6655-5.3309,2.6655s-2.6655-.7356-2.6655-2.2215c0-.8878.7356-2.3659,2.2215-4.4411,7.9954-9.4745,13.9156-18.2133,17.7674-26.2087,3.846-7.9954,6.5104-14.0619,7.9964-18.2123,1.1795-8.5856,5.1777-16.7274,11.9936-24.4311,6.809-7.6968,15.103-14.4371,24.877-20.2109,9.7701-5.7748,19.7641-10.2867,29.982-13.5483,10.2179-3.2557,19.3241-4.887,27.3185-4.887s15.1049,1.4859,21.3227,4.4421c6.2188,2.964,9.3262,7.7047,9.3262,14.2151,0,3.5533-1.041,7.4051-3.1074,11.5487-2.6674,5.6295-7.1095,10.6609-13.3283,15.103-.2986.2986-.7425.4449-1.3317.4449-2.3728,0-3.5513-1.0342-3.5513-3.1094,0-1.4791.7346-2.9571,2.2196-4.4421,2.3649-2.0683,4.2899-4.5884,5.7748-7.5515,1.4771-2.9571,2.2196-5.7748,2.2196-8.4403,0-5.3309-3.1074-7.9954-9.3262-7.9954-6.5173,0-15.0342,1.7766-25.5428,5.3299-10.5165,3.5543-20.2119,8.1486-29.0942,13.7702-10.0726,6.5173-18.5109,13.6249-25.3209,21.3227-6.8159,7.7037-10.2169,14.5127-10.2169,20.4329,0,2.964.9576,5.7051,2.8874,8.2174,1.923,2.5201,5.6982,5.4075,11.3267,8.6623,2.9581,1.7766,7.1066,4.0748,12.4375,6.8856,5.3309,2.8177,9.9194,5.4065,13.7732,7.7734,12.1389,7.4061,18.2123,15.2552,18.2123,23.5433,0,6.8149-2.966,13.7005-8.8862,20.6549-5.928,6.9612-13.5493,13.3253-22.8754,19.1002-9.3301,5.7748-19.1778,10.4399-29.541,13.9932-10.3692,3.5533-20.1412,5.3309-29.3171,5.3309Z"/><path d="M671.6192,272.2982c-5.3309,0-10.1472-1.1884-14.4371-3.5533-4.2948-2.3669-7.4808-6.81-9.5491-13.3273-.2986-.8878-.5205-1.7757-.6659-2.6645-.1532-.8888-.222-1.923-.222-3.1094,0-5.9202,1.3317-13.3263,3.9972-22.2105,2.6655-8.8842,5.9212-17.4699,9.7711-25.7638-1.7757,2.3738-3.8499,5.2612-6.2178,8.6623-2.3728,3.4079-5.7748,7.7734-10.216,13.1044-1.1864,1.1864-2.5201,1.7766-3.9972,1.7766-2.0762,0-3.1094-1.1805-3.1094-3.5543,0-1.7766.5893-3.2547,1.7757-4.4421,7.6978-9.772,14.5824-18.503,20.6568-26.2077,6.0655-7.6968,10.5833-14.2141,13.5493-19.5451,0-.2917-.0786-.5136-.2239-.6659-.1532-.1463-.2239-.3683-.2239-.6669,0-.8878.4478-2.2206,1.3357-3.9972,2.3649-7.1076,4.8084-13.1044,7.3266-17.9904,2.5142-4.887,5.2563-7.6212,8.2183-8.2183.5893,0,1.1825-.0687,1.7796-.222.5893-.1454,1.1785-.222,1.7757-.222,3.2528,0,6.2188.7425,8.8822,2.2206,2.6674,1.4859,3.9992,3.7065,3.9992,6.6636,0,2.6655-.9664,5.9271-2.8874,9.772-1.9289,3.8528-4.3724,8.5925-7.3305,14.2151-6.5173,13.6239-12.3668,25.9858-17.5445,37.0905-5.1856,11.1058-8.073,20.2119-8.6623,27.3185-.2986,1.1874-.4439,2.2981-.4439,3.3323v3.3313c0,11.8472,3.846,17.7674,11.5497,17.7674,4.7338,0,10.8072-2.5889,18.2123-7.7744,7.3973-5.1767,14.9478-11.5477,22.6554-19.0992,7.6959-7.5515,14.7278-14.8044,21.0998-21.7666,6.3641-6.9544,10.7286-12.2155,13.1014-15.7688.8878-.8888,1.7796-1.3327,2.6674-1.3327,1.1785,0,2.1449.4439,2.8874,1.3327.7346.8878.8093,2.0752.22,3.5533-2.6635,5.0392-7.1812,11.3277-13.5493,18.8792-6.368,7.5515-13.4785,15.103-21.3197,22.6544-7.8491,7.5515-15.4781,13.9912-22.8754,19.3221-3.8538,2.964-8.6623,5.5529-14.4371,7.7744-5.7748,2.2196-11.6282,3.3313-17.5484,3.3313ZM720.0374,113.2732c-3.8499,0-7.8491-.3683-11.9936-1.1108-4.1485-.7356-6.2188-3.4777-6.2188-8.2183,0-.8878,1.9996-2.9562,5.9988-6.2188,3.9952-3.2547,8.1398-6.5861,12.4375-9.994,4.2899-3.4011,6.8866-5.4006,7.7744-5.9968,5.0324-4.1435,8.1398-6.2188,9.3262-6.2188,1.481,0,1.481,1.9289,0,5.7739-1.485,3.8528-2.2196,7.2608-2.2196,10.2169,0,1.485-.8878,3.9982-2.6674,7.5515-1.7757,3.5533-3.8499,6.8159-6.2188,9.773-2.3728,2.963-4.4392,4.4421-6.2188,4.4421Z"/><path d="M784.8923,272.7421c-8.293,0-15.5488-1.9289-21.7676-5.7748-10.3672-6.2188-15.5449-17.4689-15.5449-33.7592,0-6.809,1.1785-14.659,3.5513-23.5433,2.0703-7.3983,5.7748-15.4703,11.1058-24.2091,5.3309-8.731,11.6204-17.1016,18.8802-25.097,7.2519-7.9964,15.1717-14.5058,23.7632-19.5451,8.5876-5.0324,17.1713-7.5515,25.7668-7.5515,3.5513,0,6.6627.4439,9.3262,1.3327,3.5553,1.1864,6.588,3.3313,9.1062,6.4407,2.5142,3.1094,3.7752,7.0378,3.7752,11.7716,0,5.0382-1.261,7.85-3.7752,8.4393-2.5181.5971-3.7752,0-3.7752-1.7766,0-.5903.0707-1.1795.22-1.7766.1493-.5903.2239-1.0342.2239-1.3327,0-2.3669-.6678-4.5118-1.9996-6.4407-1.3317-1.923-3.7752-2.8874-7.3305-2.8874-4.7377,0-10.5911,2.5191-17.5445,7.5515-6.9612,5.0392-14.0678,11.7716-21.3197,20.2109-7.2637,8.4403-13.6278,17.6987-19.1041,27.7634-5.4802,10.0706-9.1062,20.1412-10.8818,30.2059-.2986,1.485-.5186,2.8874-.6678,4.2201-.1493,1.3317-.22,2.7411-.22,4.2192,0,6.8159,1.5557,12.5131,4.6631,17.1016,3.1113,4.5943,8.0651,6.8846,14.881,6.8846,8.289,0,16.2835-3.1781,23.9872-9.5501,7.6959-6.3641,14.5824-13.9912,20.6558-22.8754,6.0655-8.8842,10.5833-16.7274,13.5493-23.5433,2.3649-5.3299,3.9952-9.9184,4.887-13.7702.8878-3.845,1.3317-7.1076,1.3317-9.772,0-2.3669-.2239-4.4421-.6678-6.2197-.4439-1.7766-.9625-3.2547-1.5557-4.4421-.5932-1.7766-.8878-3.1094-.8878-3.9972,0-2.3669.9585-4.2899,2.8874-5.7748,1.9249-1.4781,3.9245-2.2206,5.9988-2.2206,1.7757,0,3.6967.5961,5.7748,1.7766,2.3649.5961,5.6216,1.041,9.7701,1.3327,4.1445.2976,8.5876.4439,13.3293.4439,5.0284,0,10.1394-.1463,15.3249-.4439,5.1777-.2917,9.6954-.8888,13.5453-1.7776.5932-.2907,1.481-.4439,2.6674-.4439,2.0664,0,3.1074.5971,3.1074,1.7766,0,1.1874-1.041,2.2215-3.1074,3.1094-10.3711,4.7407-19.6227,7.2608-27.7624,7.5515-8.1476.2986-15.1796.4449-21.0998.4449.5893,7.4051-1.041,15.3249-4.887,23.7642-3.8538,8.4403-7.8491,15.922-11.9936,22.4325-5.0402,7.4061-10.815,14.9576-17.3245,22.6544-6.5173,7.7037-13.7692,14.1444-21.7676,19.3221-7.9944,5.1777-17.0299,7.7744-27.0946,7.7744Z"/><path d="M885.7202,273.6299c-2.0664,0-2.6635-1.041-1.7757-3.1094.8878-1.7757,2.5181-5.8436,4.887-12.2155,2.3649-6.3641,5.107-13.9922,8.2144-22.8754,3.1113-8.8842,6.2895-18.0601,9.554-27.5414,3.2528-9.4735,6.2855-18.3577,9.1062-26.6516,2.8088-8.2881,5.107-14.8054,6.8827-19.5451.5893-1.7776,1.1825-4.3665,1.7796-7.7744.5893-3.4001,1.8424-6.5095,3.7752-9.3281,1.921-2.8108,5.2523-4.2192,9.994-4.2192,8.8822,0,13.3253,2.0752,13.3253,6.2188,0,1.485-.7425,3.9972-2.2196,7.5515-3.5553,7.9954-7.4091,17.1782-11.5497,27.5405-4.1524,10.3692-7.853,20.1422-11.1058,29.3171-3.2645,9.1828-5.7748,16.2903-7.5505,21.3217,2.9542-4.1435,7.7705-10.0637,14.4371-17.7674,6.6627-7.6978,14.1346-15.9918,22.4315-24.876,8.2851-8.8842,16.9474-17.4699,25.9868-25.7638,9.0276-8.2871,17.4699-15.0264,25.3189-20.2109,7.8412-5.1777,14.5824-7.7734,20.2119-7.7734,7.1066,0,10.6579,3.8519,10.6579,11.5487,0,2.6655-.7425,6.6636-2.2196,11.9936-2.6635,7.4061-6.0734,14.5893-10.2179,21.5437-4.1485,6.9622-7.8491,14.2917-11.1058,21.9886-5.6256,13.9234-8.8822,25.1736-9.7701,33.7592-.2986,1.1874-.4439,2.2981-.4439,3.3323v3.3313c0,11.8472,3.9952,17.7674,11.9936,17.7674,4.4392,0,10.3633-2.6655,17.7684-7.9954,7.3973-5.3299,15.0264-11.695,22.8754-19.1002,7.8412-7.3993,14.881-14.5824,21.0998-21.5447,6.2188-6.9544,10.5086-12.2155,12.8814-15.7688.8878-.8888,1.7757-1.3327,2.6674-1.3327,1.1785,0,2.141.4439,2.8874,1.3327.7346.8878.8093,2.0752.22,3.5533-2.6635,5.0392-7.1852,11.3277-13.5493,18.8792-6.372,7.5515-13.4,15.103-21.0998,22.6544-7.7037,7.5515-15.2542,13.9912-22.6515,19.3221-4.4431,2.964-9.9272,5.6295-16.4367,7.9964-6.5173,2.3669-13.0346,3.4001-19.5441,3.1094-8.2969-.8898-14.2171-3.7772-17.7684-8.6623-3.5553-4.887-5.3309-10.7306-5.3309-17.5455,0-7.9964,1.5557-16.5054,4.6631-25.5419,3.1113-9.0305,6.588-17.5465,10.4379-25.5419,3.846-7.9964,6.9573-14.0619,9.3301-18.2123,2.3649-4.7338,3.5513-8.4403,3.5513-11.1058,0-2.3669-1.041-3.5533-3.1074-3.5533-2.0742,0-5.1856,1.3327-9.3301,3.9982-4.1485,2.6645-9.7701,7.2598-16.8767,13.7702-6.5173,5.6285-13.4825,12.958-20.8798,21.9876-7.4051,9.0374-14.5903,18.2889-21.5437,27.7634-6.9612,9.4804-13.0346,17.6221-18.2123,24.4311-5.1856,6.8159-8.8155,10.8131-10.8818,11.9936-1.485.8878-4.8163,2.3669-9.994,4.4411-5.1856,2.0683-9.1062,3.1094-11.7736,3.1094Z"/><path d="M1088.7194,290.0666c-11.8482,0-17.7684-3.2626-17.7684-9.774,0-4.7397,2.5103-9.6267,7.5505-14.6571,3.846-3.846,8.1398-6.9553,12.8814-9.3301,4.7338-2.3669,7.6959-3.5523,8.8822-3.5523,1.481,0,2.2903.5961,2.4435,1.7766.1454,1.1864-.5186,2.0742-1.9996,2.6655-2.9621,1.7757-6.2934,4.2192-9.994,7.3285-3.7045,3.1094-5.5509,6.4407-5.5509,9.994,0,4.7338,2.8088,7.1085,8.4383,7.1085,6.8119,0,13.9185-1.9996,21.3237-5.9968,7.3973-3.9972,14.2839-9.1062,20.6558-15.3249,6.3641-6.2188,11.5497-12.5072,15.5449-18.8792,3.9992-6.3641,5.9988-11.917,5.9988-16.6576,0-3.845-1.3317-7.3983-3.9992-10.6609-2.6635-3.2547-8.1476-7.1066-16.4367-11.5487-5.6256-3.2557-11.035-6.6636-16.2127-10.2169-5.1856-3.5533-9.1062-7.8432-11.7697-12.8824-2.3728,4.1514-5.4095,9.1062-9.1062,14.881-3.7085,5.7748-8.073,11.7716-13.1053,17.9904-1.7757,1.7766-3.5513,2.6655-5.3309,2.6655-1.7757,0-2.6635-.7356-2.6635-2.2215,0-.8878.7346-2.3659,2.2196-4.4411,7.9983-9.4745,13.9185-18.2133,17.7684-26.2087,3.846-7.9954,6.5095-14.0619,7.9944-18.2123,1.1825-8.5856,5.1777-16.7274,11.9936-24.4311,6.8119-7.6968,15.1049-14.4371,24.8789-20.2109,9.7701-5.7748,19.7641-10.2867,29.982-13.5483,10.2179-3.2557,19.3241-4.887,27.3185-4.887s15.1049,1.4859,21.3237,4.4421c6.2188,2.964,9.3262,7.7047,9.3262,14.2151,0,3.5533-1.041,7.4051-3.1074,11.5487-2.6674,5.6295-7.1105,10.6609-13.3293,15.103-.2986.2986-.7425.4449-1.3317.4449-2.3728,0-3.5513-1.0342-3.5513-3.1094,0-1.4791.7346-2.9571,2.2196-4.4421,2.3649-2.0683,4.2899-4.5884,5.7748-7.5515,1.4771-2.9571,2.2196-5.7748,2.2196-8.4403,0-5.3309-3.1074-7.9954-9.3262-7.9954-6.5173,0-15.0342,1.7766-25.5428,5.3299-10.5165,3.5543-20.2119,8.1486-29.0942,13.7702-10.0726,6.5173-18.5109,13.6249-25.3228,21.3227-6.8119,7.7037-10.214,14.5127-10.214,20.4329,0,2.964.9585,5.7051,2.8874,8.2174,1.921,2.5201,5.6963,5.4075,11.3257,8.6623,2.9581,1.7766,7.1066,4.0748,12.4375,6.8856,5.3309,2.8177,9.9194,5.4065,13.7732,7.7734,12.1389,7.4061,18.2123,15.2552,18.2123,23.5433,0,6.8149-2.966,13.7005-8.8862,20.6549-5.928,6.9612-13.5493,13.3253-22.8754,19.1002-9.3301,5.7748-19.1787,10.4399-29.542,13.9932-10.3672,3.5533-20.1412,5.3309-29.3142,5.3309Z"/></svg>